<?xml version="1.0" standalone="no"?>
<!DOCTYPE svg PUBLIC "-//W3C//DTD SVG 20010904//EN"
 "http://www.w3.org/TR/2001/REC-SVG-20010904/DTD/svg10.dtd">
<svg version="1.0" xmlns="http://www.w3.org/2000/svg"
 width="1500.000000pt" height="1300.000000pt" viewBox="0 0 1500.000000 1300.000000"
 preserveAspectRatio="xMidYMid meet">
<metadata>
Created by potrace 1.15, written by Peter Selinger 2001-2017
</metadata>
<g transform="translate(0.000000,1300.000000) scale(0.100000,-0.100000)"
fill="#000000" stroke="none">
<path d="M11985 9644 c-208 -9 -604 -73 -855 -140 -196 -53 -542 -165 -645
-209 -16 -7 -50 -21 -75 -30 -25 -10 -58 -23 -75 -31 -16 -7 -49 -21 -71 -31
-23 -10 -49 -31 -58 -47 -13 -23 -19 -26 -30 -16 -11 8 -24 8 -55 -1 -55 -16
-69 -34 -47 -57 20 -23 20 -36 1 -52 -13 -11 -21 -8 -48 17 -18 16 -40 28 -49
26 -15 -4 -15 -7 3 -38 14 -23 18 -41 13 -60 -4 -15 -3 -26 2 -24 5 2 77 37
159 78 214 105 269 131 277 131 4 0 31 11 60 24 103 47 151 66 169 66 10 0 21
5 24 10 10 17 25 11 25 -9 0 -10 12 -26 26 -36 22 -14 31 -15 55 -5 33 14 48
52 29 75 -7 9 -11 17 -9 18 34 24 392 134 559 171 36 8 88 20 117 26 66 15
170 31 393 63 120 17 776 16 895 -1 50 -7 112 -16 140 -20 l50 -7 -3 -37 c-3
-33 0 -38 22 -44 41 -10 66 4 66 37 0 34 -3 33 74 13 151 -38 187 -48 281 -77
167 -51 456 -168 485 -197 3 -3 23 -14 45 -25 22 -11 58 -31 80 -45 66 -41 79
-49 95 -57 8 -4 20 -11 25 -15 6 -5 57 -43 115 -86 58 -43 123 -94 145 -113
60 -52 200 -191 214 -214 11 -19 12 -19 5 4 -6 21 -214 241 -229 241 -3 0 -16
10 -28 23 -40 41 -202 162 -285 212 -9 6 -35 22 -57 36 -22 14 -47 29 -55 32
-8 4 -28 16 -45 27 -30 19 -119 63 -205 102 -25 11 -58 26 -75 34 -36 17 -148
58 -230 84 -229 74 -410 114 -701 155 -107 15 -531 26 -719 19z"/>
<path d="M9860 9001 c-19 -10 -69 -35 -110 -55 -41 -20 -102 -52 -135 -71 -33
-19 -67 -38 -75 -42 -8 -4 -34 -20 -56 -35 -23 -15 -47 -28 -53 -28 -6 0 -11
-4 -11 -9 0 -5 -13 -14 -30 -21 -16 -7 -30 -16 -30 -21 0 -5 -5 -9 -10 -9 -6
0 -29 -12 -53 -27 -57 -38 -79 -51 -97 -60 -8 -4 -19 -11 -25 -15 -5 -5 -41
-31 -80 -59 -38 -27 -78 -56 -88 -64 -9 -8 -20 -15 -23 -15 -3 0 -23 -13 -44
-30 -21 -16 -43 -30 -49 -30 -6 0 -11 -4 -11 -10 0 -5 -13 -16 -29 -25 -25
-12 -73 -49 -181 -136 -14 -11 -53 -41 -87 -67 -35 -25 -63 -49 -63 -54 0 -4
-7 -8 -15 -8 -8 0 -15 -4 -15 -8 0 -5 -27 -28 -60 -52 -33 -24 -60 -47 -60
-52 0 -4 -5 -8 -10 -8 -6 0 -21 -10 -33 -23 -12 -12 -58 -53 -102 -92 -44 -38
-87 -76 -96 -85 -9 -8 -50 -44 -90 -80 -154 -135 -581 -557 -709 -700 -41 -46
-95 -105 -120 -131 -92 -97 -127 -135 -194 -214 -38 -44 -73 -81 -78 -83 -4
-2 -8 -10 -8 -18 0 -8 -4 -14 -8 -14 -4 0 -24 -21 -45 -47 -20 -27 -51 -64
-69 -85 -18 -20 -58 -67 -88 -104 -30 -37 -62 -75 -70 -83 -8 -9 -40 -48 -70
-86 -30 -39 -58 -71 -62 -73 -5 -2 -8 -10 -8 -18 0 -8 -4 -14 -8 -14 -4 0 -48
-54 -97 -120 -49 -66 -93 -120 -97 -120 -4 0 -8 -5 -8 -11 0 -11 -69 -102 -82
-107 -5 -2 -8 -10 -8 -18 0 -8 -4 -14 -9 -14 -4 0 -21 -19 -37 -42 -16 -24
-32 -44 -36 -46 -5 -2 -8 -10 -8 -17 0 -7 -3 -15 -7 -17 -9 -4 -113 -146 -113
-154 0 -3 -17 -28 -37 -54 -35 -45 -42 -49 -93 -55 -66 -8 -143 -39 -234 -93
-151 -92 -273 -129 -369 -113 -86 15 -140 27 -222 51 -94 28 -189 50 -253 60
-29 5 -74 13 -100 19 -128 28 -354 42 -604 39 l-256 -3 -48 41 c-26 22 -72 75
-101 117 -91 133 -217 261 -341 347 -21 14 -38 28 -40 33 -2 4 -8 7 -12 7 -16
0 -104 62 -148 104 -24 23 -52 61 -64 86 -86 189 -135 252 -257 333 -38 26
-72 47 -76 47 -4 0 -21 6 -38 14 -121 54 -249 76 -432 76 l-160 0 0 186 c0
173 1 188 19 198 87 50 82 112 -16 201 -73 65 -99 103 -121 174 -18 58 -21 81
-9 81 29 0 298 42 342 53 73 19 205 72 241 98 36 25 75 97 61 111 -6 6 -29 6
-63 -1 -30 -6 -105 -15 -168 -21 -63 -6 -117 -12 -121 -15 -3 -2 -58 -8 -121
-14 -63 -5 -121 -12 -129 -16 -13 -4 -19 14 -33 102 -17 100 -36 172 -69 264
-19 52 -70 129 -85 129 -7 0 -13 3 -13 8 0 7 -44 28 -125 62 -91 37 -287 70
-420 70 -97 0 -219 -20 -300 -49 -33 -12 -69 -25 -80 -28 -30 -9 -176 -99
-210 -129 -16 -14 -45 -38 -63 -52 -36 -27 -122 -134 -122 -151 0 -5 -6 -16
-13 -23 -16 -17 -35 -67 -58 -157 -14 -56 -19 -108 -19 -218 0 -143 10 -212
47 -328 32 -102 72 -174 73 -132 1 36 82 97 129 97 43 0 49 -4 84 -51 l27 -35
-70 -53 c-72 -55 -80 -76 -33 -87 18 -5 32 0 54 22 16 15 29 34 29 41 0 7 11
13 25 13 29 0 31 -10 10 -50 -20 -39 -76 -80 -108 -80 -15 0 -27 -3 -27 -6 0
-5 56 -81 70 -94 14 -14 50 -70 50 -80 0 -5 4 -10 8 -10 5 0 19 -24 32 -52 32
-71 34 -205 5 -258 -34 -60 -103 -145 -154 -188 -74 -64 -143 -133 -176 -177
-17 -22 -32 -42 -35 -45 -5 -5 -49 -85 -60 -110 -67 -147 -90 -247 -97 -420
-5 -117 11 -259 43 -380 33 -124 46 -167 59 -202 8 -21 22 -57 31 -80 39 -101
151 -333 213 -438 97 -167 263 -397 353 -492 10 -10 18 -20 18 -23 0 -6 278
-285 284 -285 20 0 226 -206 226 -226 0 -7 4 -14 9 -14 5 0 15 -23 21 -51 14
-58 8 -149 -17 -247 -20 -80 -7 -131 45 -179 29 -27 44 -33 79 -33 24 0 43 5
43 11 0 5 5 7 10 4 6 -4 10 -71 10 -169 0 -194 2 -198 86 -206 l58 -5 23 -65
c12 -36 29 -78 37 -95 13 -28 59 -141 92 -225 15 -39 35 -109 54 -185 6 -27
16 -122 20 -210 5 -88 14 -205 19 -260 6 -55 11 -112 11 -127 l0 -28 -1065 0
-1065 0 0 -500 0 -500 7500 0 7500 0 0 500 0 500 -4695 0 c-4044 0 -4695 2
-4695 14 0 8 -3 16 -7 18 -10 4 -53 65 -53 73 0 4 -6 12 -12 20 -7 7 -33 43
-58 79 -25 36 -87 122 -137 191 -51 69 -93 130 -93 135 0 6 -3 10 -7 10 -5 0
-35 36 -67 80 -33 43 -65 81 -73 84 -22 9 -15 -25 14 -66 25 -37 26 -39 7 -53
-22 -16 -7 -32 -153 158 -99 131 -116 167 -77 167 8 0 43 -36 76 -80 34 -44
66 -78 71 -74 12 7 1 45 -16 59 -7 5 -34 37 -61 70 -87 106 -97 116 -252 274
-83 86 -152 163 -152 171 0 8 11 32 25 52 33 49 65 151 65 210 0 43 26 117 41
118 7 0 19 -52 19 -85 0 -21 50 -121 80 -161 16 -21 80 -71 119 -92 72 -41
194 -53 281 -28 55 15 120 47 120 58 0 4 5 8 11 8 18 0 77 72 111 135 31 58
33 64 32 170 -1 134 -18 180 -103 264 -87 87 -165 121 -276 121 -67 0 -160
-25 -192 -52 -7 -5 -17 -8 -22 -6 -11 4 56 118 70 118 5 0 9 7 9 15 0 8 5 15
11 15 5 0 15 14 20 30 6 17 15 30 19 30 4 0 11 21 15 46 3 25 15 60 26 78 10
17 24 42 30 56 5 13 13 27 17 30 4 3 17 25 30 50 13 25 32 59 42 75 11 17 25
41 30 55 6 13 14 27 18 30 4 3 17 25 30 50 13 25 32 59 42 75 11 17 25 41 30
55 6 13 14 27 18 30 4 3 17 25 30 50 13 25 32 59 43 75 10 17 24 42 30 58 6
15 15 27 20 27 5 0 9 5 9 11 0 5 20 41 45 79 25 38 45 72 45 75 0 8 44 69 53
73 4 2 7 8 7 13 0 6 15 32 32 60 23 34 39 49 55 49 24 0 60 14 162 64 60 29
201 152 201 176 0 5 6 15 13 22 17 18 42 73 61 132 20 62 21 171 1 226 -19 54
-19 75 0 94 8 8 15 17 15 21 0 8 43 69 53 73 4 2 7 8 7 13 0 11 42 72 53 77 4
2 7 8 7 13 0 6 5 15 10 22 6 7 35 46 65 87 30 41 59 80 65 87 5 7 10 17 10 23
0 5 4 10 10 10 5 0 16 13 25 29 8 17 26 41 38 55 l24 26 23 -25 c13 -14 34
-25 46 -25 25 0 60 31 69 61 7 22 -20 66 -46 74 -10 4 -19 10 -19 14 0 6 100
145 147 206 5 6 33 42 63 80 30 39 57 72 60 75 3 3 30 37 60 75 30 39 57 72
60 75 3 3 41 50 85 105 97 122 189 231 227 267 15 15 28 29 28 31 0 3 21 27
46 53 74 78 106 122 94 129 -18 11 0 78 27 103 19 17 35 22 62 20 34 -3 41 2
116 81 155 164 461 469 558 557 55 49 112 102 127 117 l29 28 16 -31 c20 -39
58 -49 93 -23 15 11 28 31 30 46 3 25 -3 33 -43 62 -19 14 -19 15 15 42 19 16
43 36 52 46 10 9 23 17 28 17 6 0 10 3 10 8 0 4 34 34 75 67 41 33 75 63 75
68 0 4 6 7 14 7 8 0 16 4 18 9 5 14 125 111 137 111 6 0 11 4 11 9 0 5 20 22
45 38 25 15 45 31 45 36 0 4 4 7 10 7 10 0 24 10 85 63 18 15 36 27 40 27 3 0
14 8 23 17 9 9 96 68 192 131 96 63 187 123 202 133 15 10 31 19 37 19 5 0 11
3 13 8 4 10 56 44 103 67 22 11 42 23 45 26 6 8 59 36 83 45 9 3 17 16 17 28
0 14 13 28 40 44 23 13 42 33 46 47 12 48 -16 57 -76 26z m-8138 -1232 l3 -81
90 -30 c50 -17 92 -33 94 -35 3 -2 -2 -11 -11 -19 -16 -17 -18 -16 -150 22
-30 9 -21 -27 14 -63 26 -27 30 -37 22 -51 -6 -9 -15 -17 -21 -17 -5 0 -47 45
-93 100 -46 55 -107 127 -136 161 -41 46 -51 63 -42 72 21 21 34 13 102 -68
37 -44 71 -80 77 -80 6 0 7 24 3 65 -6 55 -4 69 11 85 10 11 22 20 26 20 5 0
9 -36 11 -81z m-163 -108 c21 -13 4 -53 -19 -46 -23 7 -56 -9 -70 -34 -8 -16
-2 -29 30 -70 22 -28 51 -58 65 -67 23 -15 27 -15 50 0 15 10 25 26 25 40 0
21 16 36 40 36 15 0 19 -44 5 -76 -22 -53 -93 -79 -141 -51 -20 12 -70 65
-112 121 -32 42 -29 88 9 125 23 24 39 31 67 31 20 0 43 -4 51 -9z m-453 -321
c6 0 19 9 29 20 14 15 21 17 32 9 18 -16 16 -29 -9 -56 l-21 -22 43 -48 c55
-60 73 -69 105 -55 21 10 26 8 36 -10 10 -18 8 -24 -7 -35 -54 -40 -100 -25
-164 53 -33 41 -50 54 -64 50 -25 -7 -49 23 -34 42 8 9 4 20 -14 40 -21 22
-24 31 -17 51 l10 24 32 -31 c18 -18 38 -32 43 -32z m-73 -130 c4 -15 -3 -24
-30 -36 -19 -10 -42 -28 -50 -41 -15 -22 -15 -26 0 -40 15 -15 20 -14 65 10
28 15 61 27 75 27 30 0 67 -42 67 -76 0 -38 -82 -121 -137 -138 -19 -6 -23 -4
-22 16 0 16 14 32 47 53 30 19 48 38 50 54 6 40 -12 45 -66 17 -59 -30 -94
-33 -116 -10 -41 41 -21 116 43 160 43 29 67 31 74 4z m-179 -137 c4 -9 -2
-25 -14 -38 -31 -33 -25 -57 36 -136 l56 -72 -23 -18 c-13 -10 -27 -15 -30
-11 -41 45 -119 170 -119 191 0 29 53 101 75 101 7 0 16 -7 19 -17z m4289
-2373 c111 -31 114 -33 83 -53 -23 -16 -29 -16 -88 3 -35 11 -66 20 -70 20
-17 0 -6 -34 22 -70 26 -33 28 -39 15 -50 -20 -17 -54 15 -183 173 -76 95 -94
122 -86 135 18 28 28 23 73 -38 25 -33 58 -72 73 -87 l28 -27 0 76 c0 67 2 77
23 91 l22 15 3 -82 3 -82 82 -24z m-1873 58 c0 -5 4 -8 9 -8 5 0 42 -19 83
-42 40 -24 89 -50 108 -60 84 -40 171 -78 178 -78 4 0 18 -6 32 -13 14 -8 34
-16 45 -19 11 -4 45 -16 75 -28 60 -23 223 -77 310 -103 30 -9 97 -19 148 -23
86 -6 92 -6 92 12 0 10 5 26 10 34 9 13 14 11 35 -12 25 -29 63 -36 83 -16 8
8 15 8 25 -1 24 -19 47 -2 47 35 0 41 39 90 64 81 27 -11 30 -36 7 -61 -11
-12 -21 -25 -21 -29 0 -17 90 -5 133 17 26 13 50 20 53 15 7 -11 44 -12 44 -1
0 5 -20 32 -45 61 -33 39 -45 61 -45 85 0 65 75 119 134 97 28 -11 29 -12 20
-35 -4 -10 -18 -16 -37 -16 -34 0 -67 -24 -67 -49 0 -9 21 -40 46 -69 40 -46
50 -52 84 -52 39 0 50 11 50 51 0 10 7 19 15 19 8 0 18 1 22 3 4 1 10 -11 13
-28 l5 -30 100 0 c125 0 243 -14 248 -29 3 -7 -30 -64 -73 -128 -42 -64 -80
-122 -83 -129 -4 -8 -13 -23 -19 -34 -7 -10 -24 -37 -38 -60 -13 -22 -30 -49
-37 -60 -7 -11 -15 -27 -19 -35 -4 -8 -19 -33 -33 -55 -40 -62 -49 -78 -60
-100 -5 -11 -20 -36 -34 -56 -14 -21 -28 -46 -32 -58 -3 -12 -11 -21 -16 -21
-5 0 -9 -5 -9 -11 0 -5 -20 -41 -45 -79 -25 -38 -45 -72 -45 -75 0 -13 -65
-105 -75 -105 -19 0 -67 -90 -80 -149 -7 -31 -14 -47 -59 -126 -24 -42 -91
-164 -110 -199 -32 -59 -40 -66 -56 -52 -26 23 -111 44 -200 50 -93 7 -135 19
-192 54 -46 29 -128 123 -128 147 0 10 -7 42 -15 72 -30 107 -43 159 -50 196
-6 37 -7 38 -38 31 -66 -15 -92 0 -149 89 -21 34 -36 47 -48 44 -22 -6 -48 32
-30 43 10 6 7 16 -9 39 -21 29 -21 32 -5 56 l17 26 24 -36 c13 -19 28 -35 34
-35 11 0 89 50 89 57 0 3 -9 18 -20 33 -11 16 -18 34 -15 42 8 20 -55 133
-168 303 -114 170 -140 208 -148 215 -3 3 -9 12 -13 20 -7 15 -11 22 -56 95
-56 90 -120 252 -120 302 0 22 1 22 30 5 16 -9 30 -20 30 -24z m358 -1243 l73
-106 -30 -38 c-32 -40 -84 -71 -120 -71 -29 0 -71 42 -130 129 -47 68 -49 75
-33 87 9 7 20 14 23 14 3 0 31 -38 63 -85 52 -78 59 -85 89 -85 33 0 82 33 73
49 -3 4 -32 47 -66 96 -55 82 -59 91 -43 102 9 7 20 13 23 13 3 0 39 -47 78
-105z m-488 -52 c0 -5 13 -23 29 -42 l29 -35 32 27 c71 60 107 47 199 -75 63
-83 69 -94 54 -105 -9 -7 -20 -13 -23 -13 -3 0 -28 30 -56 67 -27 38 -57 76
-66 85 -25 25 -61 22 -88 -7 l-23 -24 71 -95 c68 -90 70 -95 52 -111 -17 -15
-21 -12 -82 67 -93 119 -168 224 -168 235 0 19 40 45 40 26z m-10 -173 c9 -17
7 -22 -17 -31 -38 -14 -63 -38 -63 -61 0 -28 27 -33 79 -14 61 21 75 20 108
-8 22 -19 28 -32 28 -66 0 -37 -6 -47 -38 -75 -44 -39 -86 -52 -98 -33 -15 23
-9 33 30 51 47 22 68 59 44 82 -17 17 -19 17 -91 -9 -34 -13 -47 -14 -65 -4
-70 37 -62 121 17 169 39 24 53 24 66 -1z m1794 -1559 c13 -20 -7 -41 -38 -41
-21 0 -40 -8 -55 -24 -20 -21 -21 -27 -10 -48 24 -45 83 -108 102 -108 31 0
55 19 62 49 3 16 14 31 25 34 24 6 30 0 30 -33 0 -36 -35 -79 -77 -97 -31 -12
-38 -12 -71 4 -20 10 -57 46 -85 82 -43 57 -48 69 -43 100 8 51 57 91 113 91
23 0 44 -4 47 -9z m-479 -311 c4 0 17 7 27 17 17 15 19 15 37 -1 19 -18 19
-18 -7 -41 l-26 -22 43 -52 c53 -63 74 -76 102 -61 15 9 24 8 35 -1 23 -19 16
-38 -20 -56 -47 -22 -79 -8 -145 68 -38 43 -58 58 -71 54 -23 -7 -48 21 -32
37 8 8 5 19 -13 40 -21 25 -23 32 -13 54 l11 25 32 -31 c17 -16 35 -30 40 -30z
m-82 -155 c-37 -23 -73 -58 -73 -70 0 -7 6 -18 14 -25 12 -9 24 -6 59 14 55
33 91 33 122 1 41 -40 34 -79 -24 -136 -33 -34 -56 -49 -75 -49 -33 0 -36 34
-3 51 39 20 67 52 67 76 0 29 -26 30 -80 3 -55 -28 -84 -26 -114 11 -14 17
-26 35 -26 41 0 30 38 84 79 109 l45 29 13 -22 c10 -19 10 -25 -4 -33z m-678
-153 c17 -19 45 -49 63 -67 17 -18 32 -35 32 -39 0 -3 -40 -6 -90 -6 -104 0
-103 -2 -74 102 18 63 22 64 69 10z m-2825 -468 l0 -56 34 6 c41 8 92 -11 121
-44 17 -19 21 -39 24 -141 l3 -119 -36 0 -36 0 0 104 c0 121 -9 139 -69 134
l-36 -3 -3 -117 -3 -118 -34 0 -35 0 0 205 0 205 35 0 35 0 0 -56z m630 -54
l49 0 3 37 c2 30 9 41 36 56 l32 19 0 -56 0 -56 41 0 c39 0 40 -1 37 -32 -3
-30 -6 -33 -40 -36 l-38 -3 0 -66 c0 -71 16 -103 52 -103 13 0 18 -8 18 -30 0
-28 -3 -30 -36 -30 -75 0 -104 44 -104 160 l0 70 -50 0 -50 0 0 -69 c0 -74 14
-101 51 -101 14 0 19 -7 19 -30 0 -28 -2 -30 -39 -30 -28 0 -49 7 -68 24 -26
23 -28 30 -31 115 -3 70 -7 91 -18 91 -9 0 -14 12 -14 35 0 24 5 35 15 35 11
0 15 11 15 38 0 33 4 40 33 54 l32 15 3 -53 3 -54 49 0z m1010 55 l0 -55 35 0
c33 0 35 -2 35 -35 0 -33 -2 -35 -35 -35 l-35 0 0 -76 c0 -75 0 -76 30 -87 23
-9 30 -17 30 -39 0 -26 -3 -28 -37 -28 -71 1 -93 37 -93 148 0 71 -2 80 -20
85 -15 4 -20 14 -20 36 0 24 4 31 20 31 16 0 20 7 20 38 0 30 5 40 28 54 15 9
30 17 35 17 4 1 7 -24 7 -54z m710 -56 l0 -111 47 56 c45 53 50 56 92 56 l45
0 -35 -37 c-19 -21 -47 -52 -62 -69 l-28 -31 61 -78 c33 -43 60 -79 60 -81 0
-2 -17 -4 -39 -4 -35 0 -42 5 -80 55 -23 31 -46 53 -52 50 -5 -4 -9 -28 -9
-56 l0 -49 -35 0 -35 0 0 205 0 205 35 0 35 0 0 -111z m-2468 -10 c14 -8 15
-14 7 -39 -9 -26 -13 -28 -35 -19 -38 14 -80 11 -95 -7 -11 -14 -11 -18 4 -29
10 -7 35 -15 57 -19 96 -15 119 -117 38 -166 -37 -22 -107 -26 -157 -9 -33 12
-34 13 -22 44 7 17 17 20 82 20 67 0 74 2 74 20 0 19 -16 27 -76 40 -48 9 -74
39 -74 83 0 47 24 78 69 91 33 10 100 5 128 -10z m1131 10 c51 -14 77 -57 77
-126 l0 -53 -85 0 c-76 0 -85 -2 -85 -19 0 -39 34 -48 105 -27 11 3 29 -1 40
-9 19 -15 19 -16 -8 -43 -24 -23 -35 -27 -88 -27 -56 0 -63 3 -90 33 -27 31
-29 37 -29 121 0 100 16 133 73 150 43 12 46 12 90 0z m265 -26 c3 -31 1 -33
-27 -33 -49 0 -61 -29 -61 -142 l0 -98 -30 0 -30 0 0 123 c0 115 2 125 23 145
28 27 65 42 97 39 20 -2 26 -8 28 -34z m182 26 c54 -11 56 -15 39 -53 -10 -21
-15 -23 -36 -15 -37 14 -79 11 -94 -7 -11 -14 -11 -18 4 -29 10 -7 35 -15 56
-19 52 -8 80 -33 87 -77 12 -74 -74 -125 -178 -105 -52 10 -61 19 -48 48 11
23 16 24 83 24 60 -1 72 2 75 16 4 19 -12 28 -86 48 -34 9 -46 18 -60 46 -16
34 -15 37 3 72 14 25 31 41 55 49 44 15 40 15 100 2z m712 1 c33 -10 78 -50
78 -70 0 -5 -13 -13 -29 -18 -23 -8 -31 -7 -45 9 -19 23 -59 25 -80 3 -19 -19
-22 -134 -4 -152 19 -19 76 -15 89 7 10 15 16 16 41 7 31 -11 33 -18 18 -47
-30 -56 -148 -65 -198 -15 -23 22 -27 36 -30 100 -6 112 18 162 83 179 32 8
38 7 77 -3z m-1892 -115 c0 -105 2 -115 20 -125 12 -6 33 -10 48 -8 l27 3 3
123 3 122 34 0 35 0 0 -143 0 -144 -39 -11 c-82 -25 -162 -8 -186 39 -11 20
-15 61 -15 144 l0 115 35 0 35 0 0 -115z m1610 81 c0 -34 -1 -35 -42 -38 -43
-3 -43 -3 -46 -45 -3 -42 -4 -43 -39 -43 l-35 0 4 57 c6 75 36 103 109 103
l49 0 0 -34z m98 -135 c6 -40 -8 -90 -30 -111 -16 -15 -36 -20 -76 -20 l-53 0
3 33 c3 29 6 32 43 37 39 5 40 6 43 48 3 42 4 43 35 40 25 -2 33 -8 35 -27z"/>
</g>
</svg>
